{
	"asset":{
		"generator":"Khronos glTF Blender I/O v4.3.47",
		"version":"2.0"
	},
	"scene":0,
	"scenes":[
		{
			"name":"Scene",
			"nodes":[
				0
			]
		}
	],
	"nodes":[
		{
			"mesh":0,
			"name":"gto",
			"rotation":[
				0.5,
				0.5,
				-0.5,
				0.5
			],
			"scale":[
				0.2877664566040039,
				1,
				0.2877664566040039
			],
			"translation":[
				0,
				0.4179604649543762,
				-0.45442676544189453
			]
		}
	],
	"materials":[
		{
			"alphaMode":"BLEND",
			"doubleSided":true,
			"name":"gto",
			"pbrMetallicRoughness":{
				"baseColorTexture":{
					"index":0
				},
				"metallicFactor":0,
				"roughnessFactor":0.5
			}
		},
		{
			"doubleSided":true,
			"name":"Material.001"
		},
		{
			"alphaMode":"BLEND",
			"doubleSided":true,
			"name":"gto2",
			"pbrMetallicRoughness":{
				"baseColorTexture":{
					"index":1
				},
				"metallicFactor":0,
				"roughnessFactor":0.5
			}
		}
	],
	"meshes":[
		{
			"name":"gto.001",
			"primitives":[
				{
					"attributes":{
						"POSITION":0,
						"NORMAL":1,
						"TEXCOORD_0":2
					},
					"indices":3,
					"material":0
				},
				{
					"attributes":{
						"POSITION":4,
						"NORMAL":5,
						"TEXCOORD_0":6
					},
					"indices":7,
					"material":1
				},
				{
					"attributes":{
						"POSITION":8,
						"NORMAL":9,
						"TEXCOORD_0":10
					},
					"indices":3,
					"material":2
				}
			]
		}
	],
	"textures":[
		{
			"sampler":0,
			"source":0
		},
		{
			"sampler":0,
			"source":1
		}
	],
	"images":[
		{
			"mimeType":"image/png",
			"name":"gto.png",
			"uri":"../Pictures/gto.png"
		},
		{
			"mimeType":"image/png",
			"name":"gto2.png.001",
			"uri":"../Pictures/gto2.png"
		}
	],
	"accessors":[
		{
			"bufferView":0,
			"componentType":5126,
			"count":4,
			"max":[
				1.5,
				0,
				0.5
			],
			"min":[
				-1.5,
				0,
				-0.5
			],
			"type":"VEC3"
		},
		{
			"bufferView":1,
			"componentType":5126,
			"count":4,
			"type":"VEC3"
		},
		{
			"bufferView":2,
			"componentType":5126,
			"count":4,
			"type":"VEC2"
		},
		{
			"bufferView":3,
			"componentType":5123,
			"count":6,
			"type":"SCALAR"
		},
		{
			"bufferView":4,
			"componentType":5126,
			"count":14511,
			"max":[
				2.9224753379821777,
				0.11000005900859833,
				1.6692514419555664
			],
			"min":[
				-1.5821293592453003,
				-0.11000000685453415,
				0.7370194792747498
			],
			"type":"VEC3"
		},
		{
			"bufferView":5,
			"componentType":5126,
			"count":14511,
			"type":"VEC3"
		},
		{
			"bufferView":6,
			"componentType":5126,
			"count":14511,
			"type":"VEC2"
		},
		{
			"bufferView":7,
			"componentType":5123,
			"count":73572,
			"type":"SCALAR"
		},
		{
			"bufferView":8,
			"componentType":5126,
			"count":4,
			"max":[
				2.8488051891326904,
				2.9427589254282793e-08,
				0.6262959837913513
			],
			"min":[
				1.7131874561309814,
				2.9427589254282793e-08,
				-0.5093218684196472
			],
			"type":"VEC3"
		},
		{
			"bufferView":9,
			"componentType":5126,
			"count":4,
			"type":"VEC3"
		},
		{
			"bufferView":10,
			"componentType":5126,
			"count":4,
			"type":"VEC2"
		}
	],
	"bufferViews":[
		{
			"buffer":0,
			"byteLength":48,
			"byteOffset":0,
			"target":34962
		},
		{
			"buffer":0,
			"byteLength":48,
			"byteOffset":48,
			"target":34962
		},
		{
			"buffer":0,
			"byteLength":32,
			"byteOffset":96,
			"target":34962
		},
		{
			"buffer":0,
			"byteLength":12,
			"byteOffset":128,
			"target":34963
		},
		{
			"buffer":0,
			"byteLength":174132,
			"byteOffset":140,
			"target":34962
		},
		{
			"buffer":0,
			"byteLength":174132,
			"byteOffset":174272,
			"target":34962
		},
		{
			"buffer":0,
			"byteLength":116088,
			"byteOffset":348404,
			"target":34962
		},
		{
			"buffer":0,
			"byteLength":147144,
			"byteOffset":464492,
			"target":34963
		},
		{
			"buffer":0,
			"byteLength":48,
			"byteOffset":611636,
			"target":34962
		},
		{
			"buffer":0,
			"byteLength":48,
			"byteOffset":611684,
			"target":34962
		},
		{
			"buffer":0,
			"byteLength":32,
			"byteOffset":611732,
			"target":34962
		}
	],
	"samplers":[
		{
			"magFilter":9729,
			"minFilter":9987,
			"wrapS":33071,
			"wrapT":33071
		}
	],
	"buffers":[
		{
			"byteLength":611764,
			"uri":"gto.bin"
		}
	]
}
