{
	"asset":{
		"generator":"Khronos glTF Blender I/O v4.3.47",
		"version":"2.0"
	},
	"scene":0,
	"scenes":[
		{
			"name":"Scene",
			"nodes":[
				0,
				1
			]
		}
	],
	"nodes":[
		{
			"mesh":0,
			"name":"Texto",
			"rotation":[
				0.5,
				0.5,
				-0.5,
				0.5
			]
		},
		{
			"mesh":1,
			"name":"gto",
			"rotation":[
				0.5,
				0.5,
				-0.5,
				0.5
			],
			"translation":[
				0,
				1.6936967372894287,
				-2.3430306911468506
			]
		}
	],
	"materials":[
		{
			"doubleSided":true,
			"name":"Material.001"
		},
		{
			"alphaMode":"BLEND",
			"doubleSided":true,
			"name":"gto",
			"pbrMetallicRoughness":{
				"baseColorTexture":{
					"index":0
				},
				"metallicFactor":0,
				"roughnessFactor":0.5
			}
		}
	],
	"meshes":[
		{
			"name":"Texto",
			"primitives":[
				{
					"attributes":{
						"POSITION":0,
						"NORMAL":1,
						"TEXCOORD_0":2
					},
					"indices":3,
					"material":0
				}
			]
		},
		{
			"name":"gto",
			"primitives":[
				{
					"attributes":{
						"POSITION":4,
						"NORMAL":5,
						"TEXCOORD_0":6
					},
					"indices":7,
					"material":1
				}
			]
		}
	],
	"textures":[
		{
			"sampler":0,
			"source":0
		}
	],
	"images":[
		{
			"mimeType":"image/png",
			"name":"gto",
			"uri":"gto.png"
		}
	],
	"accessors":[
		{
			"bufferView":0,
			"componentType":5126,
			"count":14506,
			"max":[
				4.599019527435303,
				0.10999999195337296,
				0.24249254167079926
			],
			"min":[
				0.039978839457035065,
				-0.10999999195337296,
				-0.7010044455528259
			],
			"type":"VEC3"
		},
		{
			"bufferView":1,
			"componentType":5126,
			"count":14506,
			"type":"VEC3"
		},
		{
			"bufferView":2,
			"componentType":5126,
			"count":14506,
			"type":"VEC2"
		},
		{
			"bufferView":3,
			"componentType":5123,
			"count":73572,
			"type":"SCALAR"
		},
		{
			"bufferView":4,
			"componentType":5126,
			"count":4,
			"max":[
				1.5,
				0,
				0.5
			],
			"min":[
				-1.5,
				0,
				-0.5
			],
			"type":"VEC3"
		},
		{
			"bufferView":5,
			"componentType":5126,
			"count":4,
			"type":"VEC3"
		},
		{
			"bufferView":6,
			"componentType":5126,
			"count":4,
			"type":"VEC2"
		},
		{
			"bufferView":7,
			"componentType":5123,
			"count":6,
			"type":"SCALAR"
		}
	],
	"bufferViews":[
		{
			"buffer":0,
			"byteLength":174072,
			"byteOffset":0,
			"target":34962
		},
		{
			"buffer":0,
			"byteLength":174072,
			"byteOffset":174072,
			"target":34962
		},
		{
			"buffer":0,
			"byteLength":116048,
			"byteOffset":348144,
			"target":34962
		},
		{
			"buffer":0,
			"byteLength":147144,
			"byteOffset":464192,
			"target":34963
		},
		{
			"buffer":0,
			"byteLength":48,
			"byteOffset":611336,
			"target":34962
		},
		{
			"buffer":0,
			"byteLength":48,
			"byteOffset":611384,
			"target":34962
		},
		{
			"buffer":0,
			"byteLength":32,
			"byteOffset":611432,
			"target":34962
		},
		{
			"buffer":0,
			"byteLength":12,
			"byteOffset":611464,
			"target":34963
		}
	],
	"samplers":[
		{
			"magFilter":9729,
			"minFilter":9987,
			"wrapS":33071,
			"wrapT":33071
		}
	],
	"buffers":[
		{
			"byteLength":611476,
			"uri":"guanajuato.bin"
		}
	]
}
