{
	"asset":{
		"generator":"Khronos glTF Blender I/O v4.3.47",
		"version":"2.0"
	},
	"scene":0,
	"scenes":[
		{
			"name":"Scene",
			"nodes":[
				0
			]
		}
	],
	"nodes":[
		{
			"mesh":0,
			"name":"Texto"
		}
	],
	"meshes":[
		{
			"name":"Texto",
			"primitives":[
				{
					"attributes":{
						"POSITION":0,
						"NORMAL":1,
						"TEXCOORD_0":2
					},
					"indices":3
				}
			]
		}
	],
	"accessors":[
		{
			"bufferView":0,
			"componentType":5126,
			"count":14506,
			"max":[
				4.599019527435303,
				0.10999999195337296,
				0.24249254167079926
			],
			"min":[
				0.039978839457035065,
				-0.10999999195337296,
				-0.7010044455528259
			],
			"type":"VEC3"
		},
		{
			"bufferView":1,
			"componentType":5126,
			"count":14506,
			"type":"VEC3"
		},
		{
			"bufferView":2,
			"componentType":5126,
			"count":14506,
			"type":"VEC2"
		},
		{
			"bufferView":3,
			"componentType":5123,
			"count":73572,
			"type":"SCALAR"
		}
	],
	"bufferViews":[
		{
			"buffer":0,
			"byteLength":174072,
			"byteOffset":0,
			"target":34962
		},
		{
			"buffer":0,
			"byteLength":174072,
			"byteOffset":174072,
			"target":34962
		},
		{
			"buffer":0,
			"byteLength":116048,
			"byteOffset":348144,
			"target":34962
		},
		{
			"buffer":0,
			"byteLength":147144,
			"byteOffset":464192,
			"target":34963
		}
	],
	"buffers":[
		{
			"byteLength":611336,
			"uri":"guanajuato.bin"
		}
	]
}
