{"asset":{"generator":"Microsoft GLTF Exporter 2.4.2.20","version":"2.0"},"extensionsUsed":["KHR_materials_pbrSpecularGlossiness"],"accessors":[{"bufferView":0,"componentType":5123,"count":9441,"type":"SCALAR"},{"bufferView":1,"componentType":5126,"count":8619,"max":[178.0727081298828,178.19918823242188,67.97613525390625],"min":[-160.5362091064453,-8.313228607177734,-104.56948852539062],"type":"VEC3"},{"bufferView":2,"componentType":5126,"count":8619,"type":"VEC3"},{"bufferView":3,"componentType":5126,"count":8619,"type":"VEC2"}],"bufferViews":[{"buffer":0,"byteLength":18882,"target":34963},{"buffer":0,"byteLength":103428,"byteOffset":18884,"target":34962},{"buffer":0,"byteLength":103428,"byteOffset":122312,"target":34962},{"buffer":0,"byteLength":68952,"byteOffset":225740,"target":34962},{"buffer":0,"byteLength":3873654,"byteOffset":294692},{"buffer":0,"byteLength":473,"byteOffset":4168346},{"buffer":0,"byteLength":3890351,"byteOffset":4168819},{"buffer":0,"byteLength":21317,"byteOffset":8059170}],"buffers":[{"byteLength":8080488,"uri":"model.bin"}],"images":[{"bufferView":4,"mimeType":"image/png"},{"bufferView":5,"mimeType":"image/png"},{"bufferView":6,"mimeType":"image/png"},{"bufferView":7,"mimeType":"image/png"}],"materials":[{"extensions":{"KHR_materials_pbrSpecularGlossiness":{"diffuseTexture":{"index":0},"specularGlossinessTexture":{"index":1}}},"extras":{"false":"false"},"name":"98","alphaMode":"MASK","doubleSided":true,"pbrMetallicRoughness":{"baseColorTexture":{"index":2},"metallicRoughnessTexture":{"index":3}}}],"meshes":[{"name":"mesh_id31","primitives":[{"attributes":{"POSITION":1,"NORMAL":2,"TEXCOORD_0":3},"indices":0,"material":0}]}],"nodes":[{"name":"root","children":[1]},{"name":"node_id30","mesh":0,"scale":[0.0015120689,0.0015120689,0.0015120689],"translation":[-0.013257961,-0.12843966,0.28366584]}],"samplers":[{"minFilter":9985}],"scene":0,"scenes":[{"nodes":[0]}],"textures":[{"name":"texture12","sampler":0,"source":0},{"name":"texture13","sampler":0,"source":1},{"name":"98_bc","sampler":0,"source":2},{"name":"98_mr","sampler":0,"source":3}]}