{"asset":{"generator":"Microsoft GLTF Exporter 2.4.2.20","version":"2.0"},"extensionsUsed":["KHR_materials_pbrSpecularGlossiness"],"accessors":[{"bufferView":0,"componentType":5123,"count":58062,"type":"SCALAR"},{"bufferView":1,"componentType":5123,"count":9441,"type":"SCALAR"},{"bufferView":2,"componentType":5126,"count":19247,"max":[15.900314331054688,10.850400924682617,21.34433937072754],"min":[-15.888101577758789,-10.633380889892578,-0.6295815110206604],"type":"VEC3"},{"bufferView":3,"componentType":5126,"count":8619,"max":[178.0727081298828,178.19918823242188,67.97613525390625],"min":[-160.5362091064453,-8.313228607177734,-104.56948852539062],"type":"VEC3"},{"bufferView":4,"componentType":5126,"count":19247,"type":"VEC3"},{"bufferView":5,"componentType":5126,"count":8619,"type":"VEC3"},{"bufferView":6,"componentType":5126,"count":19247,"type":"VEC2"},{"bufferView":7,"componentType":5126,"count":8619,"type":"VEC2"}],"bufferViews":[{"buffer":0,"byteLength":116124,"target":34963},{"buffer":0,"byteLength":18882,"byteOffset":116124,"target":34963},{"buffer":0,"byteLength":230964,"byteOffset":135008,"target":34962},{"buffer":0,"byteLength":103428,"byteOffset":365972,"target":34962},{"buffer":0,"byteLength":230964,"byteOffset":469400,"target":34962},{"buffer":0,"byteLength":103428,"byteOffset":700364,"target":34962},{"buffer":0,"byteLength":153976,"byteOffset":803792,"target":34962},{"buffer":0,"byteLength":68952,"byteOffset":957768,"target":34962},{"buffer":0,"byteLength":3873654,"byteOffset":1026720},{"buffer":0,"byteLength":473,"byteOffset":4900374},{"buffer":0,"byteLength":3890351,"byteOffset":4900847},{"buffer":0,"byteLength":21317,"byteOffset":8791198},{"buffer":0,"byteLength":2336760,"byteOffset":8812515},{"buffer":0,"byteLength":30035,"byteOffset":11149275},{"buffer":0,"byteLength":2319589,"byteOffset":11179310},{"buffer":0,"byteLength":27007,"byteOffset":13498899}],"buffers":[{"byteLength":13525908,"uri":"model.bin"}],"images":[{"bufferView":8,"mimeType":"image/png"},{"bufferView":9,"mimeType":"image/png"},{"bufferView":10,"mimeType":"image/png"},{"bufferView":11,"mimeType":"image/png"},{"bufferView":12,"mimeType":"image/png"},{"bufferView":13,"mimeType":"image/png"},{"bufferView":14,"mimeType":"image/png"},{"bufferView":15,"mimeType":"image/png"}],"materials":[{"extensions":{"KHR_materials_pbrSpecularGlossiness":{"diffuseTexture":{"index":0},"specularGlossinessTexture":{"index":1}}},"extras":{"false":"false"},"name":"63","alphaMode":"MASK","doubleSided":true,"pbrMetallicRoughness":{"baseColorTexture":{"index":2},"metallicRoughnessTexture":{"index":3}}},{"extensions":{"KHR_materials_pbrSpecularGlossiness":{"diffuseTexture":{"index":4},"specularGlossinessTexture":{"index":5}}},"extras":{"false":"false"},"name":"55","alphaMode":"MASK","doubleSided":true,"pbrMetallicRoughness":{"baseColorTexture":{"index":6},"metallicRoughnessTexture":{"index":7}}}],"meshes":[{"name":"mesh_id33","primitives":[{"attributes":{"POSITION":2,"NORMAL":4,"TEXCOORD_0":6},"indices":0,"material":1}]},{"name":"mesh_id39","primitives":[{"attributes":{"POSITION":3,"NORMAL":5,"TEXCOORD_0":7},"indices":1,"material":0}]}],"nodes":[{"name":"root","children":[1,2]},{"name":"node_id32","mesh":0,"rotation":[-0.6689823,0.0,-0.0,0.74327826],"scale":[0.016106497,0.016106503,0.016106503],"translation":[-0.00770641,-0.26009968,0.18541865]},{"name":"node_id38","mesh":1,"rotation":[0.052535243,0.0,-0.0,0.998619],"scale":[0.0010060794,0.0010060793,0.0010060793],"translation":[-0.22616616,0.10229649,0.11605282]}],"samplers":[{"minFilter":9985}],"scene":0,"scenes":[{"nodes":[0]}],"textures":[{"name":"texture8","sampler":0,"source":0},{"name":"texture9","sampler":0,"source":1},{"name":"63_bc","sampler":0,"source":2},{"name":"63_mr","sampler":0,"source":3},{"name":"texture5","sampler":0,"source":4},{"name":"texture6","sampler":0,"source":5},{"name":"55_bc","sampler":0,"source":6},{"name":"55_mr","sampler":0,"source":7}]}